<svg width="369" height="369" viewBox="0 0 369 369" fill="none" xmlns="http://www.w3.org/2000/svg">
<g clip-path="url(#clip0_6_616)">
<path d="M146.37 0H222.58C303.36 0 368.95 65.59 368.95 146.37V347.73C368.95 359.44 359.44 368.94 347.74 368.94H146.37C65.59 368.95 0 303.36 0 222.58V146.37C0 65.59 65.59 0 146.37 0Z" fill="#ED1C24"/>
<g clip-path="url(#clip1_6_616)">
<g opacity="0.48" filter="url(#filter0_d_6_616)">
<path d="M144.212 213.649L125.745 217.43C114.02 219.83 106.462 231.281 108.862 243.006L112.643 261.473C115.043 273.197 126.494 280.756 138.218 278.356L156.685 274.575C168.41 272.175 175.969 260.724 173.569 248.999L169.788 230.532C167.388 218.808 155.937 211.249 144.212 213.649Z" stroke="white" stroke-width="5" stroke-miterlimit="10"/>
<path d="M100.67 119.055L124.232 114.231C135.949 111.833 147.409 119.398 149.808 131.115L158.564 173.888C160.963 185.605 153.398 197.065 141.681 199.464L98.908 208.22C87.191 210.619 75.7308 203.054 73.3321 191.337L68.5085 167.775C63.9396 145.458 78.3455 123.636 100.663 119.067L100.67 119.055Z" stroke="white" stroke-width="5" stroke-miterlimit="10"/>
<path d="M216.393 67.0435L236.682 62.8898C258.666 58.3891 280.17 72.5846 284.671 94.5686L297.387 156.68C299.398 166.507 293.056 176.114 283.23 178.125L199.085 195.352C189.259 197.364 179.652 191.022 177.64 181.195L168.974 138.863C162.239 105.966 183.485 73.7805 216.383 67.0455L216.393 67.0435Z" stroke="white" stroke-width="5" stroke-miterlimit="10"/>
<path d="M230.125 202.938C257.566 197.32 284.414 215.035 290.034 242.486L297.842 280.625C299.152 287.022 295.023 293.278 288.625 294.587L250.486 302.395C223.045 308.013 196.197 290.298 190.577 262.847C184.959 235.407 202.674 208.558 230.125 202.938Z" stroke="white" stroke-width="5" stroke-miterlimit="10"/>
<path d="M144.61 213.445L127.005 217.049C115.28 219.449 107.721 230.9 110.122 242.625L113.726 260.229C116.126 271.954 127.577 279.513 139.302 277.113L156.907 273.509C168.632 271.108 176.19 259.658 173.79 247.933L170.186 230.328C167.786 218.603 156.335 211.044 144.61 213.445Z" stroke="white" stroke-width="5" stroke-miterlimit="10"/>
<path d="M142.09 199.47L100.53 207.98C88.81 210.38 77.36 202.82 74.96 191.1L70.38 168.74C65.81 146.41 80.21 124.6 102.54 120.03L124.9 115.45C136.62 113.05 148.07 120.61 150.47 132.33L158.98 173.89C161.38 185.61 153.82 197.06 142.1 199.46L142.09 199.47Z" stroke="white" stroke-width="5" stroke-miterlimit="10"/>
<path d="M281.7 178.43L199.25 195.3C189.42 197.31 179.82 190.97 177.81 181.14L169.49 140.5C162.75 107.58 183.98 75.4201 216.9 68.6801L235.5 64.8701C257.5 60.3701 278.99 74.5501 283.49 96.5501L295.85 156.96C297.86 166.79 291.52 176.39 281.69 178.4L281.7 178.43Z" stroke="white" stroke-width="5" stroke-miterlimit="10"/>
<path d="M287.26 293.19L249.66 300.88C222.59 306.42 196.15 288.96 190.61 261.89C185.07 234.82 202.53 208.38 229.6 202.84C256.67 197.3 283.11 214.76 288.65 241.83L296.34 279.43C297.63 285.74 293.56 291.9 287.25 293.19H287.26Z" stroke="white" stroke-width="5" stroke-miterlimit="10"/>
<path d="M144.988 213.244L128.255 216.67C116.53 219.07 108.971 230.521 111.372 242.246L114.797 258.979C117.198 270.703 128.649 278.262 140.373 275.862L157.106 272.436C168.831 270.036 176.39 258.585 173.99 246.86L170.564 230.127C168.164 218.403 156.713 210.844 144.988 213.244Z" stroke="white" stroke-width="5" stroke-miterlimit="10"/>
<path d="M142.52 199.47L102.16 207.73C90.44 210.13 78.99 202.57 76.59 190.85L72.26 169.7C67.69 147.37 82.09 125.56 104.42 120.99L125.57 116.66C137.29 114.26 148.74 121.82 151.14 133.54L159.4 173.9C161.8 185.62 154.24 197.07 142.52 199.47Z" stroke="white" stroke-width="5" stroke-miterlimit="10"/>
<path d="M280.17 178.72L199.42 195.25C189.59 197.26 179.99 190.92 177.98 181.09L170.01 142.15C163.27 109.23 184.5 77.0701 217.42 70.3301L234.32 66.8701C256.32 62.3701 277.81 76.5501 282.31 98.5501L294.33 157.27C296.34 167.1 290 176.7 280.17 178.71V178.72Z" stroke="white" stroke-width="5" stroke-miterlimit="10"/>
<path d="M285.9 291.78L248.84 299.36C222.15 304.82 196.1 287.62 190.63 260.93C185.17 234.24 202.37 208.19 229.06 202.72C255.75 197.26 281.8 214.46 287.27 241.15L294.85 278.21C296.12 284.43 292.11 290.5 285.89 291.78H285.9Z" stroke="white" stroke-width="5" stroke-miterlimit="10"/>
<path d="M145.376 213.042L129.505 216.291C117.78 218.691 110.222 230.142 112.622 241.867L115.871 257.737C118.271 269.462 129.722 277.021 141.447 274.621L157.318 271.372C169.043 268.971 176.602 257.521 174.201 245.796L170.952 229.925C168.552 218.2 157.101 210.641 145.376 213.042Z" stroke="white" stroke-width="5" stroke-miterlimit="10"/>
<path d="M142.94 199.47L103.79 207.48C92.07 209.88 80.62 202.32 78.22 190.6L74.14 170.66C69.57 148.33 83.97 126.52 106.3 121.95L126.24 117.87C137.96 115.47 149.41 123.03 151.81 134.75L159.82 173.9C162.22 185.62 154.66 197.07 142.94 199.47Z" stroke="white" stroke-width="5" stroke-miterlimit="10"/>
<path d="M278.64 179.01L199.58 195.19C189.75 197.2 180.15 190.86 178.14 181.03L170.52 143.79C163.78 110.87 185.01 78.7101 217.93 71.9701L233.14 68.8601C255.14 64.3601 276.63 78.5401 281.13 100.54L292.8 157.56C294.81 167.39 288.47 176.99 278.64 179V179.01Z" stroke="white" stroke-width="5" stroke-miterlimit="10"/>
<path d="M284.55 290.38L248.03 297.85C221.73 303.23 196.05 286.28 190.67 259.98C185.29 233.68 202.24 208 228.54 202.62C254.84 197.24 280.52 214.19 285.9 240.49L293.37 277.01C294.62 283.14 290.67 289.12 284.54 290.38H284.55Z" stroke="white" stroke-width="5" stroke-miterlimit="10"/>
<path d="M145.774 212.837L130.765 215.91C119.04 218.31 111.481 229.761 113.882 241.486L116.954 256.494C119.355 268.219 130.805 275.778 142.53 273.378L157.539 270.305C169.264 267.905 176.823 256.454 174.422 244.729L171.35 229.721C168.949 217.996 157.499 210.437 145.774 212.837Z" stroke="white" stroke-width="5" stroke-miterlimit="10"/>
<path d="M143.37 199.47L105.43 207.24C93.71 209.64 82.26 202.08 79.86 190.36L76.03 171.63C71.46 149.3 85.86 127.49 108.19 122.92L126.92 119.09C138.64 116.69 150.09 124.25 152.49 135.97L160.26 173.91C162.66 185.63 155.1 197.08 143.38 199.48L143.37 199.47Z" stroke="white" stroke-width="5" stroke-miterlimit="10"/>
<path d="M277.11 179.31L199.75 195.14C189.92 197.15 180.32 190.81 178.31 180.98L171.03 145.43C164.29 112.51 185.52 80.3501 218.44 73.6101L231.95 70.8501C253.95 66.3501 275.44 80.5301 279.94 102.53L291.26 157.85C293.27 167.68 286.93 177.28 277.1 179.29L277.11 179.31Z" stroke="white" stroke-width="5" stroke-miterlimit="10"/>
<path d="M283.19 288.97L247.21 296.33C221.3 301.63 196 284.93 190.7 259.02C185.4 233.11 202.1 207.81 228.01 202.51C253.92 197.21 279.22 213.91 284.52 239.82L291.88 275.8C293.12 281.84 289.22 287.73 283.18 288.97H283.19Z" stroke="white" stroke-width="5" stroke-miterlimit="10"/>
<path d="M146.162 212.645L132.015 215.541C120.29 217.941 112.731 229.392 115.132 241.117L118.028 255.263C120.428 266.988 131.879 274.547 143.604 272.147L157.75 269.25C169.475 266.85 177.034 255.399 174.634 243.675L171.738 229.528C169.337 217.803 157.887 210.244 146.162 212.645Z" stroke="white" stroke-width="5" stroke-miterlimit="10"/>
<path d="M143.8 199.47L107.07 206.99C95.35 209.39 83.9 201.83 81.5 190.11L77.91 172.58C73.34 150.25 87.74 128.44 110.07 123.87L127.6 120.28C139.32 117.88 150.77 125.44 153.17 137.16L160.69 173.89C163.09 185.61 155.53 197.06 143.81 199.46L143.8 199.47Z" stroke="white" stroke-width="5" stroke-miterlimit="10"/>
<path d="M275.57 179.6L199.9 195.09C190.07 197.1 180.47 190.76 178.46 180.93L171.53 147.08C164.79 114.16 186.02 82 218.94 75.26L230.75 72.84C252.75 68.34 274.24 82.52 278.74 104.52L289.72 158.15C291.73 167.98 285.39 177.58 275.56 179.59L275.57 179.6Z" stroke="white" stroke-width="5" stroke-miterlimit="10"/>
<path d="M281.84 287.56L246.4 294.81C220.88 300.03 195.96 283.58 190.74 258.06C185.52 232.54 201.97 207.62 227.49 202.4C253.01 197.18 277.93 213.63 283.15 239.15L290.4 274.59C291.62 280.54 287.78 286.35 281.84 287.56Z" stroke="white" stroke-width="5" stroke-miterlimit="10"/>
<path d="M146.55 212.442L133.265 215.162C121.54 217.562 113.982 229.013 116.382 240.738L119.102 254.022C121.502 265.747 132.953 273.306 144.677 270.906L157.962 268.186C169.687 265.786 177.246 254.335 174.845 242.61L172.126 229.326C169.725 217.601 158.275 210.042 146.55 212.442Z" stroke="white" stroke-width="5" stroke-miterlimit="10"/>
<path d="M144.22 199.47L108.69 206.74C96.97 209.14 85.52 201.58 83.12 189.86L79.78 173.54C75.21 151.21 89.61 129.4 111.94 124.83L128.26 121.49C139.98 119.09 151.43 126.65 153.83 138.37L161.1 173.9C163.5 185.62 155.94 197.07 144.22 199.47Z" stroke="white" stroke-width="5" stroke-miterlimit="10"/>
<path d="M274.04 179.89L200.07 195.03C190.24 197.04 180.64 190.7 178.63 180.87L172.05 148.71C165.31 115.79 186.54 83.63 219.46 76.89L229.58 74.82C251.58 70.32 273.07 84.5 277.57 106.5L288.2 158.43C290.21 168.26 283.87 177.86 274.04 179.87V179.89Z" stroke="white" stroke-width="5" stroke-miterlimit="10"/>
<path d="M280.48 286.15L245.58 293.29C220.45 298.43 195.91 282.23 190.77 257.1C185.63 231.97 201.83 207.43 226.96 202.29C252.09 197.15 276.63 213.35 281.77 238.48L288.91 273.38C290.11 279.24 286.33 284.96 280.48 286.15Z" stroke="white" stroke-width="5" stroke-miterlimit="10"/>
<path d="M146.948 212.238L134.525 214.781C122.8 217.181 115.241 228.632 117.642 240.357L120.185 252.779C122.585 264.504 134.036 272.063 145.761 269.662L158.183 267.119C169.908 264.719 177.467 253.268 175.067 241.543L172.523 229.121C170.123 217.396 158.672 209.837 146.948 212.238Z" stroke="white" stroke-width="5" stroke-miterlimit="10"/>
<path d="M144.65 199.47L110.33 206.49C98.61 208.89 87.16 201.33 84.76 189.61L81.67 174.5C77.1 152.17 91.5 130.36 113.83 125.79L128.94 122.7C140.66 120.3 152.11 127.86 154.51 139.58L161.53 173.9C163.93 185.62 156.37 197.07 144.65 199.47Z" stroke="white" stroke-width="5" stroke-miterlimit="10"/>
<path d="M272.51 180.19L200.24 194.98C190.41 196.99 180.81 190.65 178.8 180.82L172.57 150.36C165.83 117.44 187.06 85.28 219.98 78.54L228.4 76.82C250.4 72.32 271.89 86.5 276.39 108.5L286.67 158.74C288.68 168.57 282.34 178.17 272.51 180.18V180.19Z" stroke="white" stroke-width="5" stroke-miterlimit="10"/>
<path d="M279.13 284.74L244.77 291.77C220.03 296.83 195.87 280.88 190.81 256.14C185.75 231.4 201.7 207.24 226.44 202.18C251.18 197.12 275.34 213.07 280.4 237.81L287.43 272.17C288.61 277.94 284.89 283.57 279.13 284.75V284.74Z" stroke="white" stroke-width="5" stroke-miterlimit="10"/>
<path d="M147.325 212.035L135.765 214.402C124.04 216.802 116.481 228.253 118.882 239.978L121.248 251.538C123.649 263.263 135.1 270.822 146.824 268.421L158.385 266.055C170.109 263.654 177.668 252.204 175.268 240.479L172.901 228.919C170.501 217.194 159.05 209.635 147.325 212.035Z" stroke="white" stroke-width="5" stroke-miterlimit="10"/>
<path d="M145.07 199.47L111.96 206.25C100.24 208.65 88.79 201.09 86.39 189.37L83.54 175.46C78.97 153.13 93.37 131.32 115.7 126.75L129.61 123.9C141.33 121.5 152.78 129.06 155.18 140.78L161.96 173.89C164.36 185.61 156.8 197.06 145.08 199.46L145.07 199.47Z" stroke="white" stroke-width="5" stroke-miterlimit="10"/>
<path d="M270.98 180.48L200.4 194.92C190.57 196.93 180.97 190.59 178.96 180.76L173.07 152C166.33 119.08 187.56 86.92 220.48 80.18L227.21 78.8C249.21 74.3 270.7 88.48 275.2 110.48L285.13 159.02C287.14 168.85 280.8 178.45 270.97 180.46L270.98 180.48Z" stroke="white" stroke-width="5" stroke-miterlimit="10"/>
<path d="M277.77 283.34L243.95 290.26C219.6 295.24 195.82 279.54 190.83 255.19C185.85 230.84 201.55 207.06 225.9 202.07C250.25 197.09 274.03 212.79 279.02 237.14L285.94 270.96C287.1 276.64 283.44 282.18 277.77 283.34Z" stroke="white" stroke-width="5" stroke-miterlimit="10"/>
<path d="M147.713 211.843L137.015 214.033C125.29 216.433 117.732 227.884 120.132 239.609L122.322 250.307C124.722 262.032 136.173 269.591 147.898 267.19L158.596 265C170.321 262.6 177.88 251.149 175.48 239.424L173.289 228.726C170.889 217.001 159.438 209.442 147.713 211.843Z" stroke="white" stroke-width="5" stroke-miterlimit="10"/>
<path d="M145.5 199.47L113.59 206C101.87 208.4 90.42 200.84 88.02 189.12L85.42 176.42C80.85 154.09 95.25 132.28 117.58 127.71L130.28 125.11C142 122.71 153.45 130.27 155.85 141.99L162.38 173.9C164.78 185.62 157.22 197.07 145.5 199.47Z" stroke="white" stroke-width="5" stroke-miterlimit="10"/>
<path d="M269.45 180.77L200.57 194.87C190.74 196.88 181.14 190.54 179.13 180.71L173.59 153.64C166.85 120.72 188.08 88.56 221 81.82L226.03 80.79C248.03 76.29 269.52 90.47 274.02 112.47L283.61 159.31C285.62 169.14 279.28 178.74 269.45 180.75V180.77Z" stroke="white" stroke-width="5" stroke-miterlimit="10"/>
<path d="M276.42 281.93L243.14 288.74C219.18 293.64 195.78 278.19 190.87 254.23C185.97 230.27 201.42 206.87 225.38 201.96C249.34 197.06 272.74 212.51 277.65 236.47L284.46 269.75C285.6 275.33 282 280.79 276.42 281.93Z" stroke="white" stroke-width="5" stroke-miterlimit="10"/>
<path d="M148.113 211.648L138.277 213.662C126.552 216.062 118.993 227.513 121.394 239.237L123.407 249.073C125.808 260.798 137.259 268.357 148.983 265.957L158.819 263.943C170.544 261.543 178.103 250.092 175.703 238.367L173.689 228.531C171.289 216.806 159.838 209.248 148.113 211.648Z" stroke="white" stroke-width="5" stroke-miterlimit="10"/>
<path d="M145.92 199.47L115.22 205.75C103.5 208.15 92.05 200.59 89.65 188.87L87.3 177.38C82.73 155.05 97.13 133.24 119.46 128.67L130.95 126.32C142.67 123.92 154.12 131.48 156.52 143.2L162.8 173.9C165.2 185.62 157.64 197.07 145.92 199.47Z" stroke="white" stroke-width="5" stroke-miterlimit="10"/>
<path d="M267.92 181.06L200.73 194.81C190.9 196.82 181.3 190.48 179.29 180.65L174.1 155.28C167.36 122.36 188.59 90.2 221.51 83.46L224.84 82.78C246.84 78.28 268.33 92.46 272.83 114.46L282.07 159.61C284.08 169.44 277.74 179.04 267.91 181.05L267.92 181.06Z" stroke="white" stroke-width="5" stroke-miterlimit="10"/>
<path d="M275.06 280.52L242.32 287.22C218.75 292.04 195.73 276.85 190.9 253.27C186.08 229.7 201.27 206.68 224.85 201.85C248.42 197.03 271.44 212.22 276.27 235.8L282.97 268.54C284.09 274.03 280.55 279.4 275.06 280.52Z" stroke="white" stroke-width="5" stroke-miterlimit="10"/>
<path d="M148.501 211.446L139.527 213.283C127.802 215.683 120.243 227.134 122.644 238.859L124.481 247.833C126.881 259.557 138.332 267.116 150.057 264.716L159.031 262.879C170.756 260.478 178.315 249.028 175.914 237.303L174.077 228.329C171.677 216.604 160.226 209.045 148.501 211.446Z" stroke="white" stroke-width="5" stroke-miterlimit="10"/>
<path d="M121.336 129.629L131.623 127.523C143.34 125.124 154.8 132.689 157.199 144.406L163.236 173.895C165.634 185.612 158.069 197.072 146.352 199.47L116.864 205.507C105.147 207.906 93.6866 200.341 91.2878 188.624L89.1819 178.337C84.613 156.02 99.0189 134.198 121.336 129.629Z" stroke="white" stroke-width="5" stroke-miterlimit="10"/>
<path d="M222.027 85.0977L223.663 84.7628C245.647 80.2621 267.151 94.4576 271.651 116.442L280.547 159.89C282.558 169.717 276.216 179.324 266.39 181.335L200.898 194.743C191.072 196.755 181.465 190.413 179.453 180.587L174.606 156.908C167.871 124.01 189.117 91.8249 222.015 85.0899L222.027 85.0977Z" stroke="white" stroke-width="5" stroke-miterlimit="10"/>
<path d="M224.334 201.73C247.504 196.986 270.164 211.945 274.908 235.115L281.498 267.307C282.603 272.705 279.123 277.991 273.715 279.098L241.523 285.688C218.353 290.432 195.693 275.473 190.949 252.303C186.206 229.134 201.165 206.473 224.334 201.73Z" stroke="white" stroke-width="5" stroke-miterlimit="10"/>
</g>
</g>
<g clip-path="url(#clip2_6_616)">
<g filter="url(#filter1_d_6_616)">
<path d="M126.138 167.145L109.956 157.479C99.6808 151.341 86.3765 154.696 80.2394 164.97L70.5732 181.153C64.4361 191.428 67.7903 204.732 78.065 210.869L94.2479 220.536C104.523 226.673 117.827 223.318 123.964 213.044L133.63 196.861C139.767 186.586 136.413 173.282 126.138 167.145Z" stroke="white" stroke-width="5" stroke-miterlimit="10"/>
<path d="M157.794 67.937L178.441 80.2696C188.709 86.4026 192.066 99.718 185.933 109.986L163.544 147.468C157.411 157.736 144.096 161.093 133.828 154.96L96.3541 132.577C86.0863 126.444 82.7293 113.128 88.8623 102.861L101.195 82.2135C112.876 62.6565 138.232 56.2642 157.789 67.9456L157.794 67.937Z" stroke="white" stroke-width="5" stroke-miterlimit="10"/>
<path d="M278.317 107.606L296.097 118.226C315.362 129.733 321.661 154.718 310.154 173.983L277.643 228.413C272.5 237.023 261.337 239.838 252.726 234.694L178.989 190.651C170.378 185.507 167.564 174.345 172.707 165.734L194.865 128.638C212.084 99.8087 249.48 90.3809 278.309 107.601L278.317 107.606Z" stroke="white" stroke-width="5" stroke-miterlimit="10"/>
<path d="M196.782 217.186C220.829 231.549 228.699 262.738 214.331 286.793L194.368 320.215C191.019 325.821 183.751 327.654 178.145 324.305L144.723 304.342C120.676 289.979 112.806 258.79 127.174 234.735C141.538 210.688 172.726 202.817 196.782 217.186Z" stroke="white" stroke-width="5" stroke-miterlimit="10"/>
<path d="M81.4392 165.545L72.2243 180.973C66.0872 191.247 69.4414 204.552 79.7161 210.689L95.1435 219.904C105.418 226.041 118.723 222.687 124.86 212.412L134.075 196.985C140.212 186.71 136.858 173.405 126.583 167.268L111.155 158.054C100.881 151.916 87.5763 155.271 81.4392 165.545Z" stroke="white" stroke-width="5" stroke-miterlimit="10"/>
<path d="M134.16 155.24L97.74 133.49C87.47 127.35 84.11 114.05 90.25 103.78L101.95 84.19C113.64 64.62 138.98 58.23 158.55 69.92L178.14 81.62C188.41 87.76 191.77 101.06 185.63 111.33L163.88 147.75C157.74 158.02 144.44 161.38 134.17 155.24H134.16Z" stroke="white" stroke-width="5" stroke-miterlimit="10"/>
<path d="M251.42 233.87L179.16 190.72C170.55 185.58 167.73 174.42 172.88 165.81L194.15 130.2C211.38 101.35 248.74 91.9301 277.59 109.16L293.89 118.89C313.17 130.4 319.47 155.37 307.95 174.65L276.33 227.59C271.19 236.2 260.03 239.02 251.42 233.87Z" stroke="white" stroke-width="5" stroke-miterlimit="10"/>
<path d="M178.12 322.35L145.17 302.67C121.44 288.5 113.7 257.78 127.87 234.05C142.04 210.32 172.76 202.58 196.49 216.75C220.22 230.92 227.96 261.64 213.79 285.37L194.11 318.32C190.81 323.85 183.65 325.66 178.12 322.35Z" stroke="white" stroke-width="5" stroke-miterlimit="10"/>
<path d="M82.61 166.112L73.8515 180.776C67.7144 191.05 71.0686 204.355 81.3433 210.492L96.0067 219.25C106.281 225.388 119.586 222.033 125.723 211.759L134.481 197.095C140.618 186.821 137.264 173.516 126.99 167.379L112.326 158.621C102.051 152.484 88.7471 155.838 82.61 166.112Z" stroke="white" stroke-width="5" stroke-miterlimit="10"/>
<path d="M134.47 155.53L99.1 134.41C88.83 128.27 85.47 114.97 91.61 104.7L102.68 86.17C114.37 66.6 139.71 60.21 159.28 71.9L177.81 82.97C188.08 89.11 191.44 102.41 185.3 112.68L164.18 148.05C158.04 158.32 144.74 161.68 134.47 155.54V155.53Z" stroke="white" stroke-width="5" stroke-miterlimit="10"/>
<path d="M250.09 233.05L179.32 190.79C170.71 185.65 167.89 174.49 173.04 165.88L193.42 131.76C210.65 102.91 248.01 93.49 276.86 110.72L291.67 119.57C310.95 131.08 317.25 156.05 305.73 175.33L275 226.79C269.86 235.4 258.7 238.22 250.09 233.07V233.05Z" stroke="white" stroke-width="5" stroke-miterlimit="10"/>
<path d="M178.07 320.4L145.6 301.01C122.21 287.04 114.58 256.76 128.54 233.38C142.51 209.99 172.79 202.36 196.17 216.32C219.56 230.29 227.19 260.57 213.23 283.95L193.84 316.42C190.59 321.87 183.53 323.65 178.08 320.39L178.07 320.4Z" stroke="white" stroke-width="5" stroke-miterlimit="10"/>
<path d="M83.7808 166.69L75.4736 180.598C69.3365 190.872 72.6907 204.177 82.9654 210.314L96.8733 218.621C107.148 224.758 120.452 221.404 126.589 211.129L134.897 197.221C141.034 186.947 137.68 173.642 127.405 167.505L113.497 159.198C103.222 153.061 89.9179 156.415 83.7808 166.69Z" stroke="white" stroke-width="5" stroke-miterlimit="10"/>
<path d="M134.78 155.82L100.47 135.33C90.2 129.19 86.84 115.89 92.98 105.62L103.42 88.1401C115.11 68.5701 140.45 62.1801 160.02 73.8701L177.5 84.3101C187.77 90.4501 191.13 103.75 184.99 114.02L164.5 148.33C158.36 158.6 145.06 161.96 134.79 155.82H134.78Z" stroke="white" stroke-width="5" stroke-miterlimit="10"/>
<path d="M248.76 232.24L179.48 190.86C170.87 185.72 168.05 174.56 173.2 165.95L192.69 133.31C209.92 104.46 247.28 95.0401 276.13 112.27L289.46 120.23C308.74 131.74 315.04 156.71 303.52 175.99L273.68 225.96C268.54 234.57 257.38 237.39 248.77 232.24H248.76Z" stroke="white" stroke-width="5" stroke-miterlimit="10"/>
<path d="M178.02 318.44L146.02 299.33C122.98 285.57 115.45 255.73 129.21 232.69C142.97 209.65 172.81 202.12 195.85 215.88C218.89 229.64 226.42 259.48 212.66 282.52L193.55 314.52C190.34 319.89 183.39 321.64 178.02 318.44Z" stroke="white" stroke-width="5" stroke-miterlimit="10"/>
<path d="M84.9654 167.253L77.1094 180.406C70.9723 190.68 74.3265 203.985 84.6011 210.122L97.7536 217.978C108.028 224.115 121.333 220.761 127.47 210.486L135.326 197.334C141.463 187.059 138.109 173.755 127.834 167.618L114.682 159.762C104.407 153.625 91.1025 156.979 84.9654 167.253Z" stroke="white" stroke-width="5" stroke-miterlimit="10"/>
<path d="M135.1 156.11L101.85 136.25C91.58 130.11 88.22 116.81 94.36 106.54L104.17 90.1201C115.86 70.5501 141.2 64.1601 160.77 75.8501L177.19 85.6601C187.46 91.8001 190.82 105.1 184.68 115.37L164.82 148.62C158.68 158.89 145.38 162.25 135.11 156.11H135.1Z" stroke="white" stroke-width="5" stroke-miterlimit="10"/>
<path d="M247.43 231.42L179.63 190.93C171.02 185.79 168.2 174.63 173.35 166.02L191.95 134.87C209.18 106.02 246.54 96.6001 275.39 113.83L287.23 120.9C306.51 132.41 312.81 157.38 301.29 176.66L272.33 225.14C267.19 233.75 256.03 236.57 247.42 231.42H247.43Z" stroke="white" stroke-width="5" stroke-miterlimit="10"/>
<path d="M177.96 316.49L146.43 297.66C123.73 284.1 116.31 254.7 129.87 232C143.43 209.3 172.83 201.88 195.53 215.44C218.23 229 225.65 258.4 212.09 281.1L193.26 312.63C190.1 317.92 183.25 319.65 177.96 316.49Z" stroke="white" stroke-width="5" stroke-miterlimit="10"/>
<path d="M86.1513 167.812L78.7466 180.209C72.6095 190.484 75.9637 203.788 86.2384 209.925L98.6353 217.33C108.91 223.467 122.214 220.113 128.351 209.838L135.756 197.441C141.893 187.166 138.539 173.862 128.264 167.725L115.867 160.32C105.593 154.183 92.2884 157.537 86.1513 167.812Z" stroke="white" stroke-width="5" stroke-miterlimit="10"/>
<path d="M135.41 156.39L103.22 137.16C92.95 131.02 89.59 117.72 95.73 107.45L104.9 92.0901C116.59 72.5201 141.93 66.1301 161.5 77.8201L176.86 86.9901C187.13 93.1301 190.49 106.43 184.35 116.7L165.12 148.89C158.98 159.16 145.68 162.52 135.41 156.38V156.39Z" stroke="white" stroke-width="5" stroke-miterlimit="10"/>
<path d="M246.11 230.61L179.8 191.01C171.19 185.87 168.37 174.71 173.52 166.1L191.24 136.43C208.47 107.58 245.83 98.1601 274.68 115.39L285.03 121.57C304.31 133.08 310.61 158.05 299.09 177.33L271.02 224.33C265.88 232.94 254.72 235.76 246.11 230.61Z" stroke="white" stroke-width="5" stroke-miterlimit="10"/>
<path d="M177.91 314.54L146.86 295.99C124.5 282.63 117.2 253.68 130.55 231.32C143.91 208.96 172.86 201.66 195.22 215.01C217.58 228.37 224.88 257.32 211.53 279.68L192.98 310.73C189.87 315.94 183.12 317.64 177.91 314.53V314.54Z" stroke="white" stroke-width="5" stroke-miterlimit="10"/>
<path d="M87.3221 168.389L80.3687 180.031C74.2316 190.305 77.5857 203.61 87.8604 209.747L99.5019 216.7C109.777 222.837 123.081 219.483 129.218 209.208L136.172 197.567C142.309 187.292 138.954 173.988 128.68 167.851L117.038 160.897C106.764 154.76 93.4592 158.114 87.3221 168.389Z" stroke="white" stroke-width="5" stroke-miterlimit="10"/>
<path d="M135.72 156.68L104.59 138.09C94.32 131.95 90.96 118.65 97.1 108.38L105.64 94.0801C117.33 74.5101 142.67 68.1201 162.24 79.8101L176.54 88.3501C186.81 94.4901 190.17 107.79 184.03 118.06L165.44 149.19C159.3 159.46 146 162.82 135.73 156.68H135.72Z" stroke="white" stroke-width="5" stroke-miterlimit="10"/>
<path d="M244.78 229.79L179.96 191.08C171.35 185.94 168.53 174.78 173.68 166.17L190.51 137.99C207.74 109.14 245.1 99.72 273.95 116.95L282.82 122.25C302.1 133.76 308.4 158.73 296.88 178.01L269.7 223.52C264.56 232.13 253.4 234.95 244.79 229.8L244.78 229.79Z" stroke="white" stroke-width="5" stroke-miterlimit="10"/>
<path d="M177.86 312.58L147.28 294.32C125.26 281.17 118.07 252.65 131.22 230.63C144.37 208.61 172.89 201.42 194.91 214.57C216.93 227.72 224.12 256.24 210.97 278.26L192.71 308.84C189.64 313.97 183 315.65 177.87 312.58H177.86Z" stroke="white" stroke-width="5" stroke-miterlimit="10"/>
<path d="M88.4981 168.948L81.9959 179.834C75.8588 190.108 79.213 203.413 89.4876 209.55L100.374 216.052C110.648 222.189 123.953 218.835 130.09 208.56L136.592 197.674C142.729 187.4 139.375 174.095 129.1 167.958L118.214 161.456C107.94 155.319 94.6352 158.673 88.4981 168.948Z" stroke="white" stroke-width="5" stroke-miterlimit="10"/>
<path d="M136.04 156.97L105.96 139.01C95.69 132.87 92.33 119.57 98.47 109.3L106.38 96.06C118.07 76.49 143.41 70.1 162.98 81.79L176.22 89.7C186.49 95.84 189.85 109.14 183.71 119.41L165.75 149.49C159.61 159.76 146.31 163.12 136.04 156.98V156.97Z" stroke="white" stroke-width="5" stroke-miterlimit="10"/>
<path d="M243.45 228.97L180.11 191.14C171.5 186 168.68 174.84 173.83 166.23L189.77 139.54C207 110.69 244.36 101.27 273.21 118.5L280.59 122.91C299.87 134.42 306.17 159.39 294.65 178.67L268.36 222.69C263.22 231.3 252.06 234.12 243.45 228.97Z" stroke="white" stroke-width="5" stroke-miterlimit="10"/>
<path d="M177.81 310.63L147.7 292.65C126.02 279.7 118.94 251.63 131.89 229.95C144.84 208.27 172.91 201.19 194.59 214.14C216.27 227.09 223.35 255.16 210.4 276.84L192.42 306.95C189.4 312 182.86 313.65 177.81 310.64V310.63Z" stroke="white" stroke-width="5" stroke-miterlimit="10"/>
<path d="M89.6826 169.511L83.6317 179.642C77.4946 189.917 80.8487 203.221 91.1234 209.358L101.254 215.409C111.529 221.546 124.833 218.192 130.97 207.917L137.021 197.787C143.158 187.512 139.804 174.208 129.529 168.071L119.399 162.02C109.124 155.883 95.8197 159.237 89.6826 169.511Z" stroke="white" stroke-width="5" stroke-miterlimit="10"/>
<path d="M136.35 157.26L107.33 139.93C97.06 133.79 93.7 120.49 99.84 110.22L107.12 98.03C118.81 78.46 144.15 72.07 163.72 83.76L175.91 91.04C186.18 97.18 189.54 110.48 183.4 120.75L166.07 149.77C159.93 160.04 146.63 163.4 136.36 157.26H136.35Z" stroke="white" stroke-width="5" stroke-miterlimit="10"/>
<path d="M242.12 228.16L180.27 191.22C171.66 186.08 168.84 174.92 173.99 166.31L189.04 141.1C206.27 112.25 243.63 102.83 272.48 120.06L278.37 123.58C297.65 135.09 303.95 160.06 292.43 179.34L267.03 221.88C261.89 230.49 250.73 233.31 242.12 228.16Z" stroke="white" stroke-width="5" stroke-miterlimit="10"/>
<path d="M177.76 308.68L148.13 290.98C126.79 278.24 119.82 250.6 132.57 229.26C145.31 207.92 172.95 200.95 194.29 213.7C215.63 226.44 222.6 254.08 209.85 275.42L192.15 305.05C189.18 310.02 182.74 311.65 177.77 308.68H177.76Z" stroke="white" stroke-width="5" stroke-miterlimit="10"/>
<path d="M90.8535 170.079L85.2538 179.454C79.1167 189.728 82.4708 203.033 92.7455 209.17L102.12 214.77C112.395 220.907 125.7 217.552 131.837 207.278L137.436 197.903C143.573 187.628 140.219 174.324 129.945 168.187L120.57 162.587C110.295 156.45 96.9906 159.804 90.8535 170.079Z" stroke="white" stroke-width="5" stroke-miterlimit="10"/>
<path d="M136.67 157.55L108.71 140.85C98.44 134.71 95.08 121.41 101.22 111.14L107.87 100.01C119.56 80.4401 144.9 74.0501 164.47 85.7401L175.6 92.3901C185.87 98.5301 189.23 111.83 183.09 122.1L166.39 150.06C160.25 160.33 146.95 163.69 136.68 157.55H136.67Z" stroke="white" stroke-width="5" stroke-miterlimit="10"/>
<path d="M240.79 227.34L180.43 191.29C171.82 186.15 169 174.99 174.15 166.38L188.32 142.66C205.55 113.81 242.91 104.39 271.76 121.62L276.17 124.25C295.45 135.76 301.75 160.73 290.23 180.01L265.71 221.06C260.57 229.67 249.41 232.49 240.8 227.34H240.79Z" stroke="white" stroke-width="5" stroke-miterlimit="10"/>
<path d="M177.71 306.72L148.55 289.3C127.55 276.76 120.69 249.57 133.24 228.57C145.78 207.57 172.97 200.71 193.97 213.26C214.97 225.8 221.83 252.99 209.28 273.99L191.86 303.15C188.94 308.04 182.6 309.64 177.71 306.72Z" stroke="white" stroke-width="5" stroke-miterlimit="10"/>
<path d="M92.0394 170.647L86.891 179.267C80.7539 189.541 84.1081 202.846 94.3827 208.983L103.002 214.131C113.277 220.268 126.581 216.914 132.718 206.64L137.867 198.02C144.004 187.745 140.65 174.441 130.375 168.304L121.756 163.155C111.481 157.018 98.1765 160.373 92.0394 170.647Z" stroke="white" stroke-width="5" stroke-miterlimit="10"/>
<path d="M136.98 157.83L110.08 141.76C99.81 135.62 96.45 122.32 102.59 112.05L108.6 101.98C120.29 82.4101 145.63 76.0201 165.2 87.7101L175.27 93.7201C185.54 99.8601 188.9 113.16 182.76 123.43L166.69 150.33C160.55 160.6 147.25 163.96 136.98 157.82V157.83Z" stroke="white" stroke-width="5" stroke-miterlimit="10"/>
<path d="M239.47 226.52L180.59 191.36C171.98 186.22 169.16 175.06 174.31 166.45L187.59 144.22C204.82 115.37 242.18 105.95 271.03 123.18L273.95 124.92C293.23 136.43 299.53 161.4 288.01 180.68L264.38 220.25C259.24 228.86 248.08 231.68 239.47 226.53V226.52Z" stroke="white" stroke-width="5" stroke-miterlimit="10"/>
<path d="M177.66 304.77L148.97 287.64C128.31 275.3 121.57 248.55 133.9 227.9C146.24 207.24 172.99 200.5 193.64 212.83C214.3 225.17 221.04 251.92 208.71 272.57L191.58 301.26C188.7 306.07 182.47 307.65 177.66 304.77Z" stroke="white" stroke-width="5" stroke-miterlimit="10"/>
<path d="M130.789 168.414L122.925 163.717C112.65 157.58 99.3461 160.934 93.209 171.209L88.5118 179.073C82.3747 189.347 85.7289 202.652 96.0035 208.789L103.868 213.486C114.142 219.623 127.447 216.269 133.584 205.994L138.281 198.13C144.418 187.855 141.064 174.551 130.789 168.414Z" stroke="white" stroke-width="5" stroke-miterlimit="10"/>
<path d="M165.929 89.6905L174.944 95.0748C185.211 101.208 188.568 114.523 182.435 124.791L167 150.632C160.867 160.9 147.552 164.257 137.284 158.124L111.443 142.689C101.175 136.556 97.8182 123.241 103.951 112.973L109.336 103.958C121.017 84.4015 146.372 78.0091 165.929 89.6905Z" stroke="white" stroke-width="5" stroke-miterlimit="10"/>
<path d="M270.288 124.728L271.722 125.585C290.987 137.092 297.286 162.077 285.779 181.342L263.036 219.417C257.893 228.028 246.731 230.842 238.12 225.699L180.728 191.419C172.117 186.275 169.303 175.113 174.446 166.502L186.841 145.752C204.06 116.923 241.456 107.495 270.285 124.715L270.288 124.728Z" stroke="white" stroke-width="5" stroke-miterlimit="10"/>
<path d="M193.324 212.394C213.628 224.522 220.266 250.851 208.138 271.155L191.288 299.365C188.462 304.096 182.327 305.65 177.588 302.819L149.378 285.969C129.074 273.841 122.436 247.512 134.564 227.208C146.691 206.904 173.02 200.267 193.324 212.394Z" stroke="white" stroke-width="5" stroke-miterlimit="10"/>
</g>
</g>
</g>
<defs>
<filter id="filter0_d_6_616" x="60.8225" y="55.2166" width="269.478" height="269.059" filterUnits="userSpaceOnUse" color-interpolation-filters="sRGB">
<feFlood flood-opacity="0" result="BackgroundImageFix"/>
<feColorMatrix in="SourceAlpha" type="matrix" values="0 0 0 0 0 0 0 0 0 0 0 0 0 0 0 0 0 0 127 0" result="hardAlpha"/>
<feOffset dx="7" dy="7"/>
<feGaussianBlur stdDeviation="5.67"/>
<feColorMatrix type="matrix" values="0 0 0 0 0.137255 0 0 0 0 0.121569 0 0 0 0 0.12549 0 0 0 0.7 0"/>
<feBlend mode="normal" in2="BackgroundImageFix" result="effect1_dropShadow_6_616"/>
<feBlend mode="normal" in="SourceGraphic" in2="effect1_dropShadow_6_616" result="shape"/>
</filter>
<filter id="filter1_d_6_616" x="60.6635" y="55.2651" width="276.083" height="291.555" filterUnits="userSpaceOnUse" color-interpolation-filters="sRGB">
<feFlood flood-opacity="0" result="BackgroundImageFix"/>
<feColorMatrix in="SourceAlpha" type="matrix" values="0 0 0 0 0 0 0 0 0 0 0 0 0 0 0 0 0 0 127 0" result="hardAlpha"/>
<feOffset dx="7" dy="7"/>
<feGaussianBlur stdDeviation="5.67"/>
<feColorMatrix type="matrix" values="0 0 0 0 0.137255 0 0 0 0 0.121569 0 0 0 0 0.12549 0 0 0 0.7 0"/>
<feBlend mode="normal" in2="BackgroundImageFix" result="effect1_dropShadow_6_616"/>
<feBlend mode="normal" in="SourceGraphic" in2="effect1_dropShadow_6_616" result="shape"/>
</filter>
<clipPath id="clip0_6_616">
<rect width="368.95" height="368.95" fill="white"/>
</clipPath>
<clipPath id="clip1_6_616">
<rect width="269.76" height="280.56" fill="white" transform="translate(55 49.5)"/>
</clipPath>
<clipPath id="clip2_6_616">
<rect width="287.52" height="303.12" fill="white" transform="translate(55 49.5)"/>
</clipPath>
</defs>
</svg>
